<?xml version="1.0" standalone="no"?>
<!DOCTYPE svg PUBLIC "-//W3C//DTD SVG 20010904//EN"
 "http://www.w3.org/TR/2001/REC-SVG-20010904/DTD/svg10.dtd">
<svg version="1.0" xmlns="http://www.w3.org/2000/svg"
 width="301.000000pt" height="301.000000pt" viewBox="0 0 301.000000 301.000000"
 preserveAspectRatio="xMidYMid meet">

<g transform="translate(0.000000,301.000000) scale(0.100000,-0.100000)"
fill="#F40009" stroke="none">
<path d="M1463 2929 c-30 -11 -53 -59 -53 -110 0 -36 6 -48 41 -81 l41 -39
-26 -40 c-21 -31 -33 -39 -59 -40 -17 -1 -24 -3 -14 -6 27 -7 20 -20 -16 -32
-35 -12 -67 -6 -67 11 0 5 15 16 33 24 l32 15 -35 -7 c-43 -7 -53 -16 -48 -40
4 -26 64 -31 104 -9 30 16 33 16 68 -7 19 -12 36 -26 36 -29 0 -4 -18 -18 -41
-33 -34 -23 -52 -27 -119 -29 -86 -2 -120 -20 -120 -63 0 -52 86 -56 167 -8
40 23 45 24 70 10 37 -20 89 -63 83 -69 -3 -2 -39 -29 -80 -60 l-76 -56 -53
16 c-104 30 -211 -16 -211 -90 0 -45 22 -62 79 -61 48 1 117 31 180 78 l34 26
36 -22 c51 -31 111 -78 111 -88 0 -4 -49 -44 -108 -89 l-108 -80 -55 20 c-71
27 -195 24 -253 -7 -53 -27 -96 -83 -103 -130 -4 -32 -1 -43 20 -62 52 -49
184 -20 333 74 48 30 93 52 101 50 7 -3 49 -28 92 -56 l79 -51 -24 -42 c-13
-23 -24 -52 -24 -64 0 -86 108 -125 146 -52 13 26 4 43 -11 19 -11 -17 -61
-11 -80 10 -22 24 -25 81 -6 103 11 14 20 11 80 -18 140 -69 273 -69 346 -1
86 81 12 166 -145 166 -92 0 -172 -28 -260 -91 -23 -16 -188 88 -168 106 7 6
53 45 102 85 74 61 91 71 105 61 93 -68 233 -66 291 4 20 24 17 80 -5 105 -47
52 -150 48 -262 -11 l-57 -30 -40 29 c-23 16 -56 37 -73 46 -18 9 -33 20 -33
24 0 5 30 30 66 57 l67 49 38 -22 c21 -12 52 -22 70 -22 64 0 132 67 109 109
-25 48 -122 51 -194 7 l-39 -23 -58 45 -58 45 42 32 c40 31 44 32 70 18 43
-22 96 -13 120 19 19 25 19 28 3 52 -22 34 -69 34 -118 1 -20 -14 -40 -25 -43
-25 -4 0 -22 12 -40 26 l-34 26 37 49 c20 27 41 49 47 49 10 0 12 6 21 106 9
94 -25 144 -83 123z m57 -38 c13 -25 13 -112 0 -145 -22 -60 -70 -11 -70 72 0
62 13 92 40 92 11 0 24 -9 30 -19z m150 -346 c0 -18 -7 -26 -24 -31 -32 -8
-89 -1 -93 11 -5 16 49 44 85 45 28 0 32 -3 32 -25z m-285 -84 c10 -17 -56
-54 -99 -55 -54 -1 -63 28 -14 49 37 16 104 20 113 6z m390 -102 c9 -26 -18
-56 -60 -68 -37 -10 -110 9 -110 29 0 23 75 60 122 60 34 0 43 -4 48 -21z
m-427 -138 c12 -7 7 -13 -24 -33 -64 -39 -119 -60 -150 -56 -24 2 -29 8 -32
34 -3 32 18 55 63 67 26 7 123 -1 143 -12z m515 -82 c45 -24 50 -64 11 -100
-22 -21 -35 -24 -99 -24 -58 0 -79 4 -100 20 -15 11 -27 25 -27 30 0 17 47 46
103 66 64 22 83 23 112 8z m-595 -204 c29 -9 52 -20 52 -25 0 -24 -153 -109
-243 -135 -48 -14 -61 -14 -84 -3 -15 7 -29 22 -32 33 -8 44 56 114 125 135
46 13 126 11 182 -5z m617 -76 c170 -46 59 -206 -118 -170 -29 7 -82 25 -117
42 -62 29 -63 30 -44 50 24 26 102 66 151 78 53 13 82 13 128 0z"/>
<path d="M1361 1583 c-25 -27 -60 -74 -76 -105 -17 -32 -33 -58 -37 -58 -10 0
-10 -4 7 54 21 69 20 146 -2 146 -23 0 -85 -70 -121 -138 l-31 -57 -1 58 c0
110 -49 151 -145 122 -115 -34 -194 -152 -153 -228 25 -48 66 -59 119 -32 55
29 89 121 57 153 -23 23 -88 9 -88 -19 0 -4 9 -5 19 -2 13 3 23 -2 31 -16 34
-65 -73 -138 -114 -79 -22 30 -20 76 4 115 38 63 150 123 196 107 65 -24 70
-79 19 -232 -20 -58 -33 -107 -31 -110 12 -12 59 33 75 71 10 23 31 73 46 111
29 71 80 146 104 154 21 7 5 -67 -44 -198 -34 -91 -40 -116 -28 -118 24 -6 42
17 98 127 54 105 113 196 122 187 3 -2 -11 -52 -31 -111 -45 -134 -52 -171
-36 -190 15 -18 51 -20 68 -3 17 17 15 26 -5 24 -27 -2 -21 60 16 175 49 152
40 173 -38 92z"/>
<path d="M2033 1528 c-11 -13 -33 -47 -48 -75 -31 -58 -72 -93 -80 -71 -3 8 4
40 15 72 24 71 25 83 5 66 -8 -7 -20 -30 -27 -52 -15 -49 -92 -138 -107 -123
-7 7 -2 32 14 80 13 39 23 70 22 71 -1 1 -19 -1 -39 -4 -24 -2 -38 -10 -38
-18 0 -8 7 -14 15 -14 21 0 19 -8 -12 -49 -15 -20 -20 -30 -10 -22 15 12 16
10 14 -25 -3 -52 21 -55 71 -10 44 40 52 43 52 21 0 -20 24 -19 55 1 20 13 25
13 25 3 0 -26 -15 -37 -60 -44 -33 -6 -55 -18 -82 -45 -44 -44 -48 -66 -13
-82 50 -23 126 20 171 97 10 18 12 18 58 0 132 -51 246 9 246 129 0 104 -107
143 -172 62 -45 -55 12 -162 60 -114 9 9 6 14 -11 22 -30 15 -33 56 -7 89 29
37 71 36 100 0 55 -70 -22 -193 -121 -193 -41 0 -129 28 -129 41 0 5 16 50 35
101 19 51 35 96 35 101 0 14 -17 7 -37 -15z m-113 -238 c-43 -61 -103 -89
-116 -55 -12 30 59 85 109 85 l28 0 -21 -30z"/>
<path d="M1510 1468 c-67 -45 -101 -128 -65 -158 10 -8 27 -10 52 -4 l38 7
-30 6 c-25 5 -30 11 -31 36 -1 61 41 125 82 125 23 0 16 -46 -12 -74 -37 -36
-14 -33 26 4 63 59 13 107 -60 58z"/>
<path d="M1626 1468 c-2 -11 1 -18 10 -18 22 0 17 -25 -13 -62 -15 -18 -19
-26 -9 -18 18 14 18 13 12 -18 -6 -24 -4 -33 7 -38 18 -7 68 17 88 43 10 12 5
11 -15 -5 -16 -12 -33 -22 -38 -22 -13 0 -1 64 21 115 l18 41 -38 -1 c-27 0
-39 -5 -43 -17z"/>
<path d="M1569 1343 c-13 -16 -12 -17 4 -4 9 7 17 15 17 17 0 8 -8 3 -21 -13z"/>
<path d="M632 1269 c-41 -27 -72 -87 -71 -136 l2 -38 6 41 c11 68 55 123 98
124 30 0 42 -39 17 -57 -27 -20 -10 -27 24 -9 43 22 53 53 26 80 -21 22 -63
20 -102 -5z"/>
<path d="M779 1211 c-53 -33 -104 -92 -121 -138 -15 -40 -39 -43 -67 -7 -12
15 -21 22 -21 16 0 -6 16 -24 36 -40 21 -17 35 -37 34 -48 -9 -80 31 -135 97
-133 36 1 37 1 10 9 -41 12 -55 27 -67 68 -13 49 -4 79 28 87 70 17 172 128
172 187 0 24 -4 28 -28 28 -15 0 -48 -13 -73 -29z m87 5 c9 -22 -24 -82 -63
-117 -40 -35 -100 -66 -109 -56 -19 18 59 137 109 167 38 24 56 25 63 6z"/>
<path d="M1028 1223 c-23 -27 -62 -110 -87 -185 -22 -65 -40 -89 -111 -141
-25 -18 -25 -18 5 -1 17 9 41 26 54 38 l24 21 -7 -30 c-4 -16 -9 -38 -12 -47
-3 -10 -1 -18 4 -18 14 0 36 29 81 105 25 42 32 58 17 40 -39 -46 -39 -24 0
34 41 61 64 120 64 167 0 38 -9 43 -32 17z m12 -50 c0 -31 -34 -106 -57 -125
-15 -12 -16 -9 -10 24 7 48 43 128 56 128 6 0 11 -12 11 -27z"/>
<path d="M1601 1164 c-12 -15 -21 -31 -21 -35 0 -5 -8 -9 -17 -10 -11 0 -13
-3 -5 -6 21 -8 13 -60 -14 -92 -28 -33 -44 -39 -44 -17 0 8 -16 24 -36 36 -25
16 -34 28 -32 44 4 26 45 35 54 11 5 -13 9 -14 15 -4 11 19 1 29 -29 29 -39 0
-69 -24 -74 -59 -2 -17 -1 -28 3 -26 10 7 59 -42 59 -59 0 -8 -10 -22 -22 -30
-12 -9 -18 -16 -12 -16 13 0 100 55 108 69 12 19 25 12 28 -16 4 -41 34 -32
85 25 45 49 49 49 33 -8 l-9 -35 27 32 c15 17 36 46 46 65 19 31 19 32 1 18
-17 -13 -18 -13 -13 0 18 50 19 60 5 60 -8 0 -19 -12 -25 -27 -13 -37 -92
-133 -109 -133 -10 0 -12 9 -8 38 11 67 27 137 37 155 14 27 -8 21 -31 -9z"/>
<path d="M2303 1184 c9 -3 17 -12 17 -20 0 -8 5 -14 11 -14 23 0 3 35 -21 37
-15 1 -18 0 -7 -3z"/>
<path d="M2248 1158 c-16 -24 -8 -54 20 -71 27 -18 6 -67 -29 -67 -24 0 -30
24 -12 50 15 21 14 21 -6 8 -27 -16 -34 -37 -20 -54 17 -20 52 -17 83 7 31 25
34 59 5 85 -13 12 -19 27 -16 41 5 29 -6 29 -25 1z"/>
<path d="M2065 1152 c-16 -11 -36 -26 -43 -35 -19 -23 -52 -88 -41 -81 5 3 9
-4 9 -15 0 -29 41 -28 66 2 10 12 12 16 4 10 -19 -18 -40 -16 -40 2 0 46 77
141 98 121 4 -4 -5 -30 -20 -57 -14 -27 -22 -49 -17 -49 5 0 9 -11 9 -25 0
-29 21 -33 41 -8 10 11 10 14 2 9 -18 -10 -16 13 2 57 8 20 15 48 15 62 0 21
-5 25 -27 25 -16 0 -41 -8 -58 -18z"/>
<path d="M1330 1150 c0 -5 7 -10 16 -10 8 0 12 5 9 10 -3 6 -10 10 -16 10 -5
0 -9 -4 -9 -10z"/>
<path d="M1779 1123 c-22 -25 -22 -26 -1 -9 22 19 22 19 22 -6 0 -13 -7 -48
-16 -77 -16 -54 -11 -81 10 -47 91 151 140 192 97 80 -36 -95 -21 -123 37 -66
15 15 18 19 7 10 -42 -35 -45 -18 -14 58 23 54 21 84 -6 84 -14 0 -33 -18 -70
-65 -14 -19 -15 -17 -9 23 6 37 4 42 -13 42 -11 0 -30 -12 -44 -27z"/>
<path d="M2422 1095 c58 -21 102 -60 133 -117 56 -103 34 -227 -58 -318 -77
-77 -168 -110 -328 -117 l-117 -6 -11 36 c-15 44 -75 100 -127 118 -63 23
-226 17 -302 -9 -48 -17 -67 -20 -83 -12 -28 16 -18 24 58 48 211 65 353 49
438 -51 37 -43 44 -43 21 1 -20 38 -54 68 -106 91 -86 39 -281 24 -432 -33
-61 -22 -69 -23 -121 -11 -220 51 -553 66 -702 31 -145 -33 -236 -90 -275
-171 -27 -57 -21 -102 20 -149 135 -153 565 -94 1000 136 l96 50 127 -41 c70
-22 169 -48 218 -58 l91 -18 -6 -34 c-15 -94 -113 -224 -207 -276 -40 -21 -70
-29 -123 -33 -96 -6 -147 10 -200 61 -51 49 -65 97 -47 157 14 46 77 105 123
114 86 17 140 -82 102 -189 -5 -14 5 -8 31 17 31 30 39 45 42 85 5 42 2 53
-22 81 -37 44 -75 62 -130 62 -55 0 -88 -16 -137 -67 -44 -46 -58 -79 -58
-140 0 -58 23 -105 71 -147 50 -43 106 -59 199 -58 209 2 375 127 443 334 5
14 21 17 119 16 127 0 177 10 261 55 108 57 177 166 185 293 6 89 -13 147 -67
207 -37 41 -101 77 -136 76 -12 0 -5 -6 17 -14z m-1187 -400 c55 -10 107 -21
115 -25 30 -17 -385 -200 -532 -235 -83 -19 -208 -19 -255 0 -52 22 -52 11 0
-14 79 -38 208 -26 411 39 103 33 279 106 383 158 53 27 65 30 92 21 17 -6 31
-14 31 -18 0 -11 -260 -133 -370 -174 -168 -62 -332 -94 -429 -82 -174 20
-265 91 -231 181 26 69 129 134 249 160 87 18 399 12 536 -11z m646 -46 c36
-18 89 -72 89 -90 0 -5 -10 -7 -22 -4 -13 3 -57 12 -98 20 -41 9 -113 27 -160
41 -94 29 -93 39 7 53 73 10 138 3 184 -20z"/>
<path d="M2189 1083 c-13 -16 -12 -17 4 -4 16 13 21 21 13 21 -2 0 -10 -8 -17
-17z"/>
<path d="M1303 1064 c-10 -15 -43 -54 -73 -88 -53 -59 -53 -60 -7 -16 l47 44
-3 -38 c-1 -22 3 -41 9 -43 6 -2 11 9 12 24 0 16 10 53 22 82 23 61 21 75 -7
35z"/>
<path d="M1039 1060 c-16 -13 -18 -18 -6 -14 22 8 22 -11 1 -61 -33 -80 -2
-129 55 -87 17 13 37 18 53 15 23 -4 25 -2 21 20 -3 15 5 48 20 81 l26 56 -33
0 c-21 0 -36 -6 -40 -15 -3 -9 0 -15 9 -15 19 0 19 -2 -6 -60 -24 -55 -65 -91
-75 -66 -3 9 2 38 11 65 27 83 11 121 -36 81z"/>
<path d="M1359 993 c-13 -16 -12 -17 4 -4 16 13 21 21 13 21 -2 0 -10 -8 -17
-17z"/>
<path d="M1371 957 c-13 -16 -5 -27 20 -27 12 0 16 6 12 20 -6 23 -16 25 -32
7z"/>
</g>
</svg>
