<svg width="27" height="27" viewBox="0 0 27 27" fill="none" xmlns="http://www.w3.org/2000/svg">
<path fill-rule="evenodd" clip-rule="evenodd" d="M17.9656 26.4382V16.4267H21.3264L21.8293 12.5255H17.9643V10.0346C17.9643 8.90486 18.2784 8.13445 19.8994 8.13445H21.965V4.64433C20.9646 4.53787 19.9592 4.48609 18.9531 4.48921C15.9749 4.48921 13.9364 6.30796 13.9364 9.64684V12.5255H10.5652V16.4267H13.9351V26.4382H1.65119C0.862684 26.4382 0.224121 25.7996 0.224121 25.0111V2.01252C0.224121 1.22401 0.862684 0.585449 1.65119 0.585449H24.6498C25.4383 0.585449 26.0769 1.22401 26.0769 2.01252V25.0111C26.0769 25.7996 25.4383 26.4382 24.6498 26.4382H17.9656Z" fill="#FDFDFD"/>
</svg> 