<svg width="32" height="32" viewBox="0 0 32 32" fill="none" xmlns="http://www.w3.org/2000/svg">
<path d="M16.253 0C12.0436 0 11.5142 0.0193896 9.8603 0.0930699C8.20637 0.170628 7.07984 0.430448 6.09291 0.814361C5.05769 1.20374 4.12001 1.81453 3.34541 2.60402C2.5564 3.37901 1.94569 4.31658 1.55576 5.35152C1.17184 6.33651 0.910083 7.46498 0.834464 9.11309C0.760784 10.7709 0.741394 11.2983 0.741394 15.5136C0.741394 19.725 0.760784 20.2524 0.834464 21.9063C0.912022 23.5583 1.17184 24.6848 1.55576 25.6718C1.95324 26.6917 2.48258 27.5564 3.34541 28.4193C4.20631 29.2821 5.07108 29.8134 6.09097 30.2089C7.07984 30.5928 8.20444 30.8546 9.85643 30.9302C11.5123 31.0039 12.0397 31.0233 16.253 31.0233C20.4664 31.0233 20.9918 31.0039 22.6477 30.9302C24.2978 30.8527 25.4282 30.5928 26.4151 30.2089C27.4497 29.8194 28.3867 29.2086 29.1607 28.4193C30.0235 27.5564 30.5528 26.6917 30.9503 25.6718C31.3323 24.6848 31.5941 23.5583 31.6716 21.9063C31.7453 20.2524 31.7647 19.725 31.7647 15.5116C31.7647 11.2983 31.7453 10.7709 31.6716 9.11503C31.5941 7.46498 31.3323 6.33651 30.9503 5.35152C30.5604 4.31655 29.9497 3.37897 29.1607 2.60402C28.3863 1.81423 27.4486 1.2034 26.4132 0.814361C25.4243 0.430448 24.2958 0.168689 22.6458 0.0930699C20.9899 0.0193896 20.4645 0 16.2492 0H16.255H16.253ZM14.8628 2.79597H16.255C20.3966 2.79597 20.8871 2.80955 22.5217 2.88517C24.0341 2.95303 24.8562 3.20703 25.403 3.41838C26.1262 3.69953 26.6439 4.03691 27.1868 4.57981C27.7297 5.12272 28.0652 5.63848 28.3463 6.36365C28.5596 6.9085 28.8117 7.73062 28.8795 9.243C28.9551 10.8775 28.9707 11.3681 28.9707 15.5078C28.9707 19.6474 28.9551 20.1399 28.8795 21.7745C28.8117 23.2869 28.5577 24.107 28.3463 24.6538C28.0976 25.3273 27.7007 25.9363 27.1849 26.4357C26.642 26.9786 26.1262 27.3141 25.401 27.5952C24.8581 27.8085 24.036 28.0606 22.5217 28.1304C20.8871 28.2041 20.3966 28.2215 16.255 28.2215C12.1134 28.2215 11.6209 28.2041 9.98634 28.1304C8.47395 28.0606 7.65377 27.8085 7.10699 27.5952C6.4332 27.3469 5.82364 26.9507 5.32315 26.4357C4.8069 25.9355 4.40936 25.326 4.15977 24.6519C3.94843 24.107 3.69442 23.2849 3.62656 21.7725C3.55288 20.138 3.53737 19.6474 3.53737 15.5039C3.53737 11.3623 3.55288 10.8737 3.62656 9.23912C3.69636 7.72674 3.94843 6.90462 4.16171 6.35784C4.44286 5.63461 4.78024 5.1169 5.32315 4.574C5.86605 4.03109 6.38182 3.69565 7.10699 3.4145C7.65377 3.20122 8.47395 2.94915 9.98634 2.87935C11.4173 2.81343 11.9718 2.79404 14.8628 2.7921V2.79597ZM24.5343 5.37091C24.2899 5.37091 24.0478 5.41905 23.822 5.5126C23.5962 5.60614 23.391 5.74325 23.2181 5.9161C23.0453 6.08895 22.9082 6.29414 22.8146 6.51998C22.7211 6.74581 22.6729 6.98786 22.6729 7.23231C22.6729 7.47675 22.7211 7.7188 22.8146 7.94463C22.9082 8.17047 23.0453 8.37567 23.2181 8.54851C23.391 8.72136 23.5962 8.85847 23.822 8.95201C24.0478 9.04556 24.2899 9.0937 24.5343 9.0937C25.028 9.0937 25.5014 8.89759 25.8505 8.54851C26.1996 8.19943 26.3957 7.72598 26.3957 7.23231C26.3957 6.73863 26.1996 6.26518 25.8505 5.9161C25.5014 5.56702 25.028 5.37091 24.5343 5.37091ZM16.255 7.54642C15.1984 7.52993 14.1491 7.7238 13.1681 8.11674C12.1872 8.50968 11.2942 9.09384 10.5412 9.83521C9.78815 10.5766 9.19013 11.4603 8.78194 12.435C8.37374 13.4097 8.16352 14.4559 8.16352 15.5126C8.16352 16.5693 8.37374 17.6155 8.78194 18.5902C9.19013 19.5649 9.78815 20.4487 10.5412 21.19C11.2942 21.9314 12.1872 22.5155 13.1681 22.9085C14.1491 23.3014 15.1984 23.4953 16.255 23.4788C18.3462 23.4462 20.3408 22.5925 21.8081 21.1021C23.2754 19.6117 24.0979 17.6041 24.0979 15.5126C24.0979 13.4211 23.2754 11.4135 21.8081 9.92309C20.3408 8.43269 18.3462 7.57904 16.255 7.54642ZM16.255 10.3405C17.6265 10.3405 18.9418 10.8853 19.9116 11.8551C20.8814 12.8248 21.4262 14.1402 21.4262 15.5116C21.4262 16.8831 20.8814 18.1984 19.9116 19.1682C18.9418 20.138 17.6265 20.6828 16.255 20.6828C14.8835 20.6828 13.5682 20.138 12.5984 19.1682C11.6286 18.1984 11.0838 16.8831 11.0838 15.5116C11.0838 14.1402 11.6286 12.8248 12.5984 11.8551C13.5682 10.8853 14.8835 10.3405 16.255 10.3405Z" fill="#FDFDFD"/>
</svg> 