<svg width="1499" height="1500" viewBox="0 0 1499 1500" fill="none" xmlns="http://www.w3.org/2000/svg">
<path d="M1031.99 402.92C1010.5 417.393 982.163 443.057 968.142 484.014C949.407 538.799 963.194 600.967 1003.18 646.934C1004.23 648.173 1005.02 649.619 1005.48 651.178C1005.94 652.737 1006.07 654.376 1005.87 655.989C1005.66 657.602 1005.12 659.154 1004.28 660.546C1003.44 661.938 1002.32 663.14 1000.99 664.073C982.954 676.905 963.956 689.737 944.46 702.54C881.788 743.79 813.963 785.04 756.442 826.29C754.454 827.718 752.069 828.487 749.621 828.487C747.174 828.487 744.789 827.718 742.801 826.29C685.866 785.45 618.831 744.639 556.715 703.829C536.546 690.586 516.904 677.315 498.257 664.073C496.927 663.139 495.805 661.938 494.965 660.546C494.124 659.154 493.584 657.602 493.377 655.989C493.17 654.376 493.302 652.737 493.765 651.178C494.227 649.619 495.009 648.173 496.062 646.934C536.048 600.967 549.836 538.799 531.101 484.014C517.08 443.057 488.744 417.393 467.258 402.92C465.433 401.685 463.994 399.959 463.107 397.94C462.22 395.922 461.922 393.694 462.246 391.513C462.571 389.332 463.505 387.287 464.941 385.615C466.376 383.943 468.255 382.711 470.361 382.061C498.228 373.594 539.327 353.965 566.609 309.024C597.989 257.315 591.169 204.844 584.846 179.297C584.422 177.581 584.392 175.79 584.759 174.06C585.127 172.33 585.881 170.706 586.966 169.31C588.051 167.914 589.438 166.783 591.023 166.001C592.607 165.219 594.349 164.807 596.116 164.795C620.851 164.502 668.068 158.467 705.918 120.381C720.202 105.976 731.389 88.7977 738.791 69.9029C739.661 67.7416 741.158 65.8902 743.088 64.5864C745.018 63.2826 747.293 62.5859 749.621 62.5859C751.95 62.5859 754.225 63.2826 756.155 64.5864C758.085 65.8902 759.581 67.7416 760.452 69.9029C767.854 88.7977 779.041 105.976 793.325 120.381C831.175 158.467 878.392 164.502 903.127 164.795C904.894 164.807 906.635 165.219 908.22 166.001C909.805 166.783 911.192 167.915 912.277 169.31C913.361 170.706 914.116 172.33 914.483 174.06C914.85 175.79 914.821 177.581 914.397 179.297C908.074 204.844 901.254 257.315 932.634 309.024C959.916 353.965 1001.01 373.594 1028.88 382.061C1030.99 382.711 1032.87 383.943 1034.3 385.615C1035.74 387.287 1036.67 389.332 1037 391.513C1037.32 393.694 1037.02 395.922 1036.14 397.94C1035.25 399.959 1033.81 401.685 1031.99 402.92Z" fill="#46CC8D"/>
<path d="M749.62 853.189C743.798 853.189 738.214 850.874 734.096 846.753C729.979 842.632 727.666 837.043 727.666 831.216V266.281C727.666 260.454 729.979 254.865 734.096 250.744C738.214 246.624 743.798 244.309 749.62 244.309C755.443 244.309 761.027 246.624 765.145 250.744C769.262 254.865 771.575 260.454 771.575 266.281V831.216C771.575 837.043 769.262 842.632 765.145 846.753C761.027 850.874 755.443 853.189 749.62 853.189Z" fill="#00C27A"/>
<path d="M662.329 1196.22C601.589 1200.44 547.961 1234.63 522.465 1286.63C503.438 1325.51 505.34 1363.71 510.317 1389.14C510.737 1391.31 510.533 1393.56 509.728 1395.62C508.923 1397.68 507.55 1399.47 505.768 1400.78C503.987 1402.09 501.87 1402.87 499.665 1403.02C497.459 1403.18 495.255 1402.7 493.309 1401.65C467.579 1387.94 424.694 1372.79 373.731 1385.24C315.01 1399.6 282.751 1441.49 269.169 1464.08C268.254 1465.59 267.009 1466.88 265.527 1467.84C264.045 1468.8 262.364 1469.41 260.612 1469.63C258.859 1469.85 257.08 1469.66 255.409 1469.09C253.737 1468.52 252.217 1467.58 250.961 1466.34C233.281 1449.05 195.607 1419.9 141.95 1420.02C121.665 1420.1 101.612 1424.34 83.0242 1432.47C80.8826 1433.38 78.5189 1433.63 76.236 1433.18C73.953 1432.74 71.8549 1431.62 70.2103 1429.97C68.5656 1428.33 67.4495 1426.23 67.0049 1423.94C66.5603 1421.66 66.8074 1419.29 67.7146 1417.15C75.8379 1398.55 80.0717 1378.48 80.1555 1358.17C80.2726 1304.47 51.1463 1266.77 33.8755 1249.07C32.6334 1247.82 31.6922 1246.29 31.1225 1244.62C30.5528 1242.95 30.3696 1241.17 30.5865 1239.41C30.8035 1237.66 31.415 1235.98 32.3751 1234.49C33.3351 1233.01 34.6188 1231.76 36.1295 1230.85C58.6987 1217.26 100.559 1184.97 114.902 1126.2C127.343 1075.2 112.209 1032.28 98.5094 1006.52C97.4598 1004.58 96.9842 1002.37 97.1379 1000.16C97.2916 997.955 98.0683 995.837 99.3775 994.054C100.687 992.271 102.475 990.897 104.534 990.091C106.593 989.285 108.838 989.081 111.009 989.502C136.417 994.482 174.589 996.387 213.434 977.344C265.393 951.826 299.554 898.154 303.769 837.363C303.892 835.74 304.354 834.162 305.124 832.728C305.895 831.295 306.957 830.04 308.243 829.043C309.528 828.047 311.008 827.331 312.587 826.942C314.166 826.554 315.809 826.501 317.41 826.787C360.412 834.053 406.077 843.984 451.859 854.033C503.965 865.488 556.246 877.09 604.955 885.146C607.37 885.534 609.6 886.675 611.329 888.405C613.059 890.136 614.198 892.368 614.586 894.785C628.344 978.076 652.435 1071.74 668.389 1157.26C669.999 1165.78 671.502 1174.22 672.897 1182.57C673.183 1184.17 673.13 1185.81 672.742 1187.39C672.354 1188.98 671.638 1190.46 670.643 1191.74C669.647 1193.03 668.392 1194.09 666.96 1194.86C665.529 1195.64 663.951 1196.1 662.329 1196.22Z" fill="#46CC8D"/>
<path d="M214.122 1307.91C209.78 1307.91 205.535 1306.63 201.925 1304.21C198.315 1301.8 195.501 1298.37 193.839 1294.35C192.177 1290.34 191.743 1285.92 192.59 1281.66C193.437 1277.39 195.528 1273.48 198.598 1270.41L597.736 870.936C601.855 866.823 607.437 864.514 613.255 864.518C619.074 864.521 624.653 866.835 628.767 870.953C632.882 875.071 635.194 880.655 635.198 886.478C635.201 892.301 632.894 897.888 628.784 902.01L229.646 1301.48C227.61 1303.52 225.19 1305.14 222.526 1306.25C219.862 1307.35 217.006 1307.92 214.122 1307.91Z" fill="#00C27A"/>
<path d="M1465.37 1249.07C1448.1 1266.77 1418.97 1304.47 1419.09 1358.17C1419.17 1378.48 1423.4 1398.55 1431.53 1417.15C1432.43 1419.29 1432.68 1421.66 1432.24 1423.94C1431.79 1426.23 1430.68 1428.33 1429.03 1429.97C1427.39 1431.62 1425.29 1432.74 1423.01 1433.18C1420.72 1433.63 1418.36 1433.38 1416.22 1432.47C1397.63 1424.34 1377.58 1420.1 1357.29 1420.02C1303.64 1419.9 1265.96 1449.05 1248.28 1466.34C1247.03 1467.58 1245.5 1468.52 1243.83 1469.09C1242.16 1469.66 1240.38 1469.85 1238.63 1469.63C1236.88 1469.41 1235.2 1468.8 1233.72 1467.84C1232.23 1466.88 1230.99 1465.59 1230.07 1464.08C1216.49 1441.49 1184.23 1399.6 1125.51 1385.24C1074.55 1372.79 1031.66 1387.94 1005.93 1401.65C1003.99 1402.7 1001.78 1403.18 999.578 1403.02C997.372 1402.87 995.256 1402.09 993.474 1400.78C991.693 1399.47 990.319 1397.68 989.514 1395.62C988.709 1393.56 988.505 1391.31 988.925 1389.14C993.902 1363.71 995.805 1325.51 976.777 1286.63C951.281 1234.63 897.654 1200.44 836.913 1196.22C835.292 1196.1 833.714 1195.64 832.282 1194.86C830.85 1194.09 829.596 1193.03 828.6 1191.74C827.604 1190.46 826.889 1188.98 826.501 1187.39C826.112 1185.81 826.059 1184.17 826.345 1182.57C827.75 1174.16 829.263 1165.64 830.883 1157.02C846.836 1071.56 870.898 977.988 884.656 894.785C885.044 892.369 886.184 890.136 887.913 888.406C889.642 886.675 891.872 885.534 894.287 885.146C943.348 877.031 996.038 865.312 1048.52 853.769C1093.93 843.808 1139.18 833.994 1181.83 826.787C1183.43 826.501 1185.08 826.554 1186.65 826.942C1188.23 827.331 1189.71 828.047 1191 829.043C1192.28 830.04 1193.35 831.296 1194.12 832.729C1194.89 834.162 1195.35 835.74 1195.47 837.363C1199.69 898.154 1233.85 951.826 1285.81 977.344C1324.65 996.387 1362.82 994.482 1388.23 989.502C1390.4 989.081 1392.65 989.285 1394.71 990.091C1396.77 990.897 1398.55 992.271 1399.86 994.054C1401.17 995.837 1401.95 997.955 1402.1 1000.16C1402.26 1002.37 1401.78 1004.58 1400.73 1006.52C1387.03 1032.28 1371.9 1075.2 1384.34 1126.2C1398.68 1184.97 1440.54 1217.26 1463.11 1230.85C1464.62 1231.76 1465.91 1233.01 1466.87 1234.49C1467.83 1235.98 1468.44 1237.66 1468.66 1239.41C1468.87 1241.17 1468.69 1242.95 1468.12 1244.62C1467.55 1246.29 1466.61 1247.82 1465.37 1249.07Z" fill="#46CC8D"/>
<path d="M1234.4 1468.2C1236.6 1469.43 1239.15 1469.92 1241.65 1469.58C1244.15 1469.25 1246.48 1468.11 1248.28 1466.34C1248.62 1466.01 1248.98 1465.67 1249.33 1465.33C1244.3 1466.02 1239.32 1466.98 1234.4 1468.2ZM1285.12 1307.92C1282.24 1307.92 1279.38 1307.35 1276.72 1306.25C1274.05 1305.14 1271.63 1303.52 1269.6 1301.48L870.459 902.011C866.349 897.888 864.042 892.302 864.045 886.479C864.048 880.655 866.361 875.071 870.475 870.954C874.59 866.836 880.169 864.521 885.987 864.518C891.806 864.515 897.388 866.824 901.507 870.937L1300.64 1270.41C1303.71 1273.48 1305.81 1277.39 1306.65 1281.66C1307.5 1285.92 1307.07 1290.34 1305.4 1294.35C1303.74 1298.37 1300.93 1301.8 1297.32 1304.21C1293.71 1306.63 1289.46 1307.92 1285.12 1307.92L1285.12 1307.92ZM668.39 1157.26C629.463 1166.77 588.579 1164.4 551.009 1150.45C513.44 1136.5 480.908 1111.6 457.607 1078.97C434.307 1046.34 421.307 1007.48 420.282 967.385C419.258 927.292 430.257 887.812 451.861 854.033C503.966 865.488 556.247 877.09 604.957 885.146C607.371 885.535 609.602 886.675 611.331 888.406C613.06 890.136 614.199 892.369 614.587 894.785C628.345 978.076 652.437 1071.74 668.39 1157.26Z" fill="#00C27A"/>
<path d="M620.749 1107.31C700.775 1107.31 765.649 1042.39 765.649 962.293C765.649 882.201 700.775 817.273 620.749 817.273C540.723 817.273 475.85 882.201 475.85 962.293C475.85 1042.39 540.723 1107.31 620.749 1107.31Z" fill="#E53950"/>
<path d="M673.085 827.066C691.801 852.312 701.813 882.961 701.614 914.396C701.415 945.831 691.015 976.35 671.98 1001.36C652.946 1026.36 626.308 1044.5 596.079 1053.04C565.85 1061.58 533.668 1060.06 504.379 1048.7C517.765 1066.76 535.163 1081.45 555.199 1091.63C575.235 1101.8 597.36 1107.17 619.827 1107.31C642.293 1107.45 664.484 1102.37 684.648 1092.45C704.812 1082.54 722.396 1068.06 736.011 1050.18C749.626 1032.29 758.899 1011.48 763.097 989.392C767.294 967.303 766.303 944.54 760.199 922.9C754.096 901.26 743.049 881.338 727.93 864.705C712.811 848.073 694.035 835.188 673.085 827.066Z" fill="#CA2E43"/>
<path d="M1080.4 962.402C1080.39 992.929 1073.43 1023.05 1060.03 1050.48C1046.64 1077.9 1027.17 1101.91 1003.12 1120.68C979.058 1139.44 951.041 1152.47 921.195 1158.77C891.35 1165.07 860.463 1164.47 830.883 1157.02C846.836 1071.56 870.898 977.988 884.657 894.785C885.044 892.369 886.184 890.136 887.913 888.406C889.642 886.675 891.873 885.535 894.287 885.146C943.348 877.031 996.039 865.312 1048.52 853.77C1069.4 886.145 1080.47 923.872 1080.4 962.402Z" fill="#00C27A"/>
<path d="M878.493 1107.31C958.519 1107.31 1023.39 1042.39 1023.39 962.293C1023.39 882.201 958.519 817.273 878.493 817.273C798.467 817.273 733.594 882.201 733.594 962.293C733.594 1042.39 798.467 1107.31 878.493 1107.31Z" fill="#E53950"/>
<path d="M947.65 834.828C961.388 862.431 965.977 893.698 960.753 924.09C955.528 954.481 940.762 982.415 918.597 1003.84C896.431 1025.26 868.022 1039.05 837.491 1043.21C806.961 1047.38 775.9 1041.69 748.816 1026.99C758.973 1047.37 773.785 1065.08 792.051 1078.66C810.317 1092.25 831.525 1101.34 853.955 1105.2C876.386 1109.05 899.408 1107.57 921.158 1100.86C942.909 1094.15 962.774 1082.41 979.146 1066.59C995.518 1050.77 1007.94 1031.31 1015.39 1009.79C1022.85 988.269 1025.14 965.293 1022.07 942.723C1019 920.153 1010.67 898.623 997.739 879.878C984.809 861.133 967.65 845.7 947.65 834.828Z" fill="#CA2E43"/>
<path d="M944.46 702.539C881.787 743.789 813.963 785.039 756.442 826.289C754.454 827.718 752.069 828.486 749.621 828.486C747.174 828.486 744.788 827.718 742.801 826.289C685.866 785.449 618.831 744.639 556.715 703.828C567.896 660.977 592.925 623.029 627.902 595.898C662.879 568.768 705.84 553.976 750.092 553.829C794.344 553.682 837.402 568.187 872.558 595.085C907.714 621.983 932.994 659.763 944.46 702.539H944.46Z" fill="#00C27A"/>
<path d="M750.761 899.523C830.787 899.523 895.66 834.596 895.66 754.504C895.66 674.412 830.787 609.484 750.761 609.484C670.735 609.484 605.861 674.412 605.861 754.504C605.861 834.596 670.735 899.523 750.761 899.523Z" fill="#E53950"/>
<path d="M836.182 637.385C847.846 666.607 849.695 698.835 841.45 729.202C833.205 759.569 815.312 786.427 790.474 805.722C765.636 825.016 735.2 835.7 703.761 836.161C672.322 836.621 641.587 826.833 616.195 808.274C624.517 829.144 637.571 847.792 654.327 862.748C671.083 877.704 691.082 888.559 712.747 894.455C734.412 900.351 757.149 901.128 779.165 896.724C801.181 892.32 821.874 882.856 839.609 869.079C857.345 855.301 871.64 837.587 881.364 817.334C891.089 797.081 895.978 774.844 895.646 752.376C895.313 729.908 889.768 707.825 879.449 687.869C869.13 667.914 854.318 650.631 836.182 637.385Z" fill="#CA2E43"/>
</svg>
