<svg width="1501" height="1500" viewBox="0 0 1501 1500" fill="none" xmlns="http://www.w3.org/2000/svg">
<path d="M1383.82 881.777C1386.16 859.394 1416.57 838.183 1416.57 815.155C1416.57 792.157 1386.16 770.946 1383.82 748.534C1381.44 725.712 1406.81 698.671 1402.13 676.61C1397.38 654.198 1363.25 639.755 1356.25 618.251C1349.19 596.513 1368.32 564.755 1359.12 544.071C1349.8 523.212 1313.39 516.239 1302.02 496.611C1290.62 476.894 1302.69 441.855 1289.33 423.486C1279.84 410.448 1258.48 406.991 1241.43 400.107C1234.74 397.751 1228.67 393.927 1223.65 388.915C1208.42 372.011 1213.02 335.214 1196.11 319.98C1181.93 307.206 1154.22 311.073 1134.79 304.716C1131.19 303.604 1127.78 301.934 1124.69 299.765C1106.32 286.376 1103.21 249.433 1083.46 238.007C1063.84 226.669 1030.26 242.372 1009.4 233.056C988.718 223.827 977.967 188.349 956.199 181.288C934.695 174.315 905.164 196.669 882.752 191.923C870.77 189.403 860.047 178.71 849.06 169.071C839.774 160.927 830.34 153.544 819.881 152.431C797.497 150.116 773.24 178.153 750.242 178.153C727.244 178.153 702.987 150.116 680.603 152.431C657.752 154.804 639.822 187.265 617.732 191.923C595.32 196.669 565.789 174.315 544.285 181.288C522.547 188.349 511.766 223.827 491.082 233.056C470.222 242.343 436.648 226.669 417.019 238.007C397.303 249.433 394.168 286.376 375.798 299.735C357.371 313.153 321.277 304.774 304.373 319.98C287.469 335.214 292.068 372.011 276.833 388.915C261.629 405.79 224.539 405.058 211.15 423.485C197.791 441.825 209.891 476.894 198.464 496.61C187.098 516.239 150.682 523.212 141.365 544.071C132.166 564.755 151.297 596.513 144.236 618.251C137.234 639.755 103.103 654.198 98.3572 676.61C93.6702 698.671 119.041 725.712 116.668 748.534C114.324 770.946 83.9141 792.157 83.9141 815.155C83.9141 838.183 114.324 859.394 116.668 881.777C119.041 904.628 93.6702 931.64 98.3572 953.73C103.103 976.142 137.234 990.585 144.236 1012.09C151.297 1033.83 132.166 1065.56 141.365 1086.24C150.682 1107.1 187.098 1114.07 198.464 1133.7C209.861 1153.45 197.791 1188.49 211.15 1206.85C224.539 1225.25 261.599 1224.52 276.834 1241.42C292.068 1258.33 287.469 1295.1 304.373 1310.33C321.277 1325.57 357.371 1317.19 375.798 1330.58C394.168 1343.93 397.273 1380.88 417.019 1392.3C436.648 1403.67 470.222 1387.97 491.082 1397.28C511.766 1406.48 522.517 1441.99 544.285 1449.05C565.789 1456.02 595.32 1433.64 617.732 1438.39C639.822 1443.08 657.752 1475.51 680.603 1477.88C702.987 1480.22 727.244 1452.19 750.242 1452.19C766.941 1452.19 784.285 1466.95 801.101 1474.13C806.934 1476.98 813.402 1478.27 819.881 1477.88C842.732 1475.51 860.662 1443.08 882.752 1438.39C905.164 1433.64 934.695 1456.02 956.199 1449.05C977.937 1441.99 988.718 1406.48 1009.4 1397.28C1030.26 1387.97 1063.84 1403.67 1083.46 1392.3C1103.18 1380.88 1106.32 1343.93 1124.69 1330.58C1143.11 1317.19 1179.21 1325.57 1196.11 1310.33C1213.02 1295.13 1208.42 1258.33 1223.65 1241.42C1238.86 1224.52 1275.95 1225.25 1289.33 1206.85C1302.69 1188.49 1290.59 1153.45 1302.02 1133.7C1313.39 1114.07 1349.8 1107.1 1359.12 1086.24C1368.32 1065.56 1349.19 1033.83 1356.25 1012.09C1363.25 990.585 1397.38 976.142 1402.13 953.73C1406.81 931.64 1381.44 904.628 1383.82 881.777ZM750.242 1119.46C731.346 1119.46 710.369 1146.53 692.381 1143.37C673.894 1140.15 663.377 1107.48 646.121 1101.21C628.572 1094.82 599.569 1113.02 583.602 1103.79C567.489 1094.47 568.807 1060.19 554.627 1048.3C540.448 1036.35 506.902 1043.58 494.979 1029.37C483.084 1015.19 495.974 983.437 486.658 967.323C477.429 951.357 443.416 946.728 437.03 929.15C430.76 911.923 453.758 886.523 450.506 868.036C447.371 850.048 417.02 834.052 417.02 815.155C417.02 796.288 447.371 780.263 450.506 762.304C453.758 743.788 430.76 718.417 437.03 701.161C443.416 683.612 477.429 678.954 486.658 662.987C495.974 646.903 483.084 615.145 494.979 600.966C506.902 586.757 540.448 593.964 554.656 582.04C568.807 570.145 567.489 535.868 583.602 526.552C599.569 517.323 628.572 535.517 646.15 529.13C650.178 527.483 653.783 524.949 656.697 521.718C668.416 509.882 677.967 489.491 692.381 486.942C699.559 485.683 707.235 489.257 715.027 493.974C726.775 501.093 738.875 510.849 750.242 510.849C769.139 510.849 790.115 483.808 808.103 486.942C826.59 490.194 837.107 522.86 854.363 529.13C859.676 530.718 865.295 531 870.74 529.95C886.737 527.636 905.252 519.843 916.882 526.552C926.961 532.382 930.242 548.026 934.724 561.796C937.42 570.028 940.554 577.587 945.857 582.04C960.036 593.964 993.582 586.757 1005.51 600.966C1017.4 615.145 1004.51 646.903 1013.83 663.017C1023.05 678.954 1057.07 683.612 1063.45 701.161C1069.72 718.417 1046.73 743.788 1049.98 762.304C1053.11 780.263 1083.46 796.288 1083.46 815.155C1083.46 834.052 1053.11 850.048 1049.98 868.036C1046.73 886.523 1069.72 911.923 1063.45 929.15C1057.07 946.728 1023.05 951.357 1013.83 967.323C1004.51 983.437 1017.4 1015.19 1005.51 1029.37C993.582 1043.58 960.036 1036.35 945.828 1048.3C931.677 1060.19 932.995 1094.47 916.882 1103.79C900.915 1113.02 871.912 1094.82 854.334 1101.21C837.107 1107.48 826.59 1140.15 808.103 1143.37C790.115 1146.53 769.138 1119.46 750.242 1119.46Z" fill="#46CC8D"/>
<path d="M684.324 152.329C683.083 152.276 681.84 152.309 680.604 152.431C675.967 153.019 671.503 154.564 667.494 156.968C672.75 154.344 678.466 152.768 684.324 152.329ZM676.268 1143.37C679.163 1142.82 681.909 1141.66 684.324 1139.97C670.482 1130.67 660.709 1106.51 646.121 1101.21C628.572 1094.82 599.569 1113.02 583.602 1103.79C567.489 1094.47 568.807 1060.19 554.627 1048.3C540.448 1036.35 506.902 1043.58 494.979 1029.37C483.084 1015.19 495.975 983.437 486.658 967.324C477.429 951.357 443.416 946.728 437.03 929.15C430.76 911.923 453.758 886.523 450.506 868.036C447.372 850.048 417.02 834.052 417.02 815.156C417.02 796.288 447.372 780.263 450.506 762.304C453.758 743.788 430.76 718.417 437.03 701.161C443.416 683.612 477.429 678.954 486.658 662.987C495.975 646.903 483.084 615.146 494.979 600.966C506.902 586.757 540.448 593.964 554.656 582.04C568.807 570.146 567.489 535.868 583.602 526.552C599.569 517.323 628.572 535.517 646.15 529.13C650.178 527.483 653.783 524.949 656.698 521.718C666.097 512.225 674.106 497.249 684.344 490.369C681.924 488.67 679.171 487.502 676.268 486.942C658.279 483.808 637.303 510.849 618.406 510.849C607.039 510.849 594.939 501.093 583.191 493.974C575.399 489.257 567.723 485.683 560.545 486.942C546.131 489.491 536.58 509.882 524.862 521.718C521.947 524.949 518.342 527.483 514.314 529.13C496.736 535.517 467.733 517.323 451.766 526.552C435.653 535.868 436.971 570.146 422.82 582.04C408.612 593.964 375.066 586.757 363.143 600.966C351.248 615.146 364.139 646.903 354.822 662.987C345.593 678.954 311.58 683.612 305.194 701.161C298.924 718.417 321.922 743.788 318.67 762.304C315.536 780.263 285.184 796.288 285.184 815.155C285.184 834.052 315.535 850.048 318.67 868.036C321.922 886.523 298.924 911.923 305.194 929.15C311.58 946.728 345.593 951.357 354.822 967.323C364.139 983.437 351.248 1015.19 363.143 1029.37C375.066 1043.58 408.612 1036.35 422.791 1048.3C436.971 1060.19 435.653 1094.47 451.766 1103.79C467.733 1113.02 496.736 1094.82 514.285 1101.21C531.541 1107.48 542.058 1140.15 560.545 1143.37C578.533 1146.53 599.51 1119.46 618.406 1119.46C637.302 1119.46 658.279 1146.53 676.268 1143.37ZM1383.82 881.777C1386.16 859.394 1416.57 838.183 1416.57 815.155C1416.57 792.157 1386.16 770.946 1383.82 748.534C1381.44 725.712 1406.81 698.671 1402.13 676.61C1397.38 654.198 1363.25 639.755 1356.25 618.251C1349.19 596.513 1368.32 564.755 1359.12 544.071C1349.8 523.212 1313.39 516.239 1302.02 496.611C1290.62 476.894 1302.69 441.855 1289.33 423.486C1279.84 410.448 1258.48 406.991 1241.43 400.107C1234.74 397.751 1228.67 393.927 1223.65 388.915C1208.42 372.011 1213.02 335.214 1196.11 319.98C1181.93 307.206 1154.22 311.073 1134.79 304.716C1131.19 303.604 1127.78 301.934 1124.69 299.765C1106.32 286.376 1103.21 249.433 1083.46 238.007C1063.84 226.669 1030.26 242.372 1009.4 233.056C988.719 223.827 977.967 188.349 956.199 181.288C934.695 174.315 905.164 196.669 882.752 191.923C870.77 189.403 860.047 178.71 849.061 169.071C839.774 160.927 830.34 153.544 819.881 152.431C797.498 150.116 773.24 178.153 750.242 178.153C733.983 178.153 717.096 164.149 700.685 156.755C706.615 160.268 712.159 164.397 717.225 169.071C728.211 178.71 738.934 189.403 750.916 191.923C773.328 196.669 802.859 174.315 824.363 181.288C846.131 188.349 856.882 223.827 877.566 233.056C898.426 242.372 932 226.669 951.629 238.007C971.375 249.433 974.48 286.376 992.85 299.765C995.939 301.934 999.35 303.604 1002.96 304.716C1022.38 311.073 1050.1 307.206 1064.28 319.98C1081.18 335.214 1076.58 372.011 1091.81 388.915C1096.83 393.927 1102.91 397.751 1109.6 400.107C1126.65 406.991 1148.01 410.448 1157.5 423.485C1170.86 441.855 1158.79 476.894 1170.18 496.61C1181.55 516.239 1217.97 523.212 1227.28 544.071C1236.48 564.755 1217.35 596.513 1224.41 618.251C1231.41 639.755 1265.55 654.198 1270.29 676.61C1274.98 698.671 1249.61 725.712 1251.98 748.534C1254.32 770.946 1284.73 792.157 1284.73 815.155C1284.73 838.183 1254.32 859.394 1251.98 881.777C1249.61 904.628 1274.98 931.64 1270.29 953.73C1265.55 976.142 1231.41 990.585 1224.41 1012.09C1217.35 1033.83 1236.48 1065.56 1227.28 1086.24C1217.97 1107.1 1181.55 1114.07 1170.18 1133.7C1158.76 1153.45 1170.86 1188.49 1157.5 1206.85C1144.11 1225.25 1107.02 1224.52 1091.81 1241.42C1076.58 1258.33 1081.18 1295.13 1064.28 1310.33C1047.37 1325.57 1011.28 1317.19 992.85 1330.58C974.481 1343.93 971.346 1380.88 951.629 1392.3C932 1403.67 898.426 1387.97 877.567 1397.28C856.883 1406.48 846.102 1441.99 824.364 1449.05C802.859 1456.02 773.328 1433.64 750.916 1438.39C733.169 1442.15 718.105 1463.82 701.018 1473.42C717.323 1466 734.093 1452.19 750.242 1452.19C766.941 1452.19 784.285 1466.95 801.101 1474.13C806.934 1476.98 813.403 1478.27 819.881 1477.88C842.732 1475.51 860.662 1443.08 882.752 1438.39C905.164 1433.64 934.695 1456.02 956.199 1449.05C977.937 1441.99 988.718 1406.48 1009.4 1397.28C1030.26 1387.97 1063.84 1403.67 1083.46 1392.3C1103.18 1380.88 1106.32 1343.93 1124.69 1330.58C1143.11 1317.19 1179.21 1325.57 1196.11 1310.33C1213.02 1295.13 1208.42 1258.33 1223.65 1241.42C1238.86 1224.52 1275.95 1225.25 1289.33 1206.85C1302.69 1188.49 1290.59 1153.45 1302.02 1133.7C1313.39 1114.07 1349.8 1107.1 1359.12 1086.24C1368.32 1065.56 1349.19 1033.83 1356.25 1012.09C1363.25 990.585 1397.38 976.142 1402.13 953.73C1406.81 931.64 1381.44 904.628 1383.82 881.777ZM669.265 1474.13C668.63 1473.86 667.992 1473.56 667.355 1473.27C671.402 1475.71 675.914 1477.28 680.604 1477.88C681.897 1478.01 683.199 1478.04 684.498 1477.98C679.223 1477.67 674.054 1476.36 669.265 1474.13Z" fill="#00C27A"/>
<path d="M108.187 668.248C155.667 668.248 194.158 629.757 194.158 582.276C194.158 534.796 155.667 496.305 108.187 496.305C60.7057 496.305 22.2148 534.796 22.2148 582.276C22.2148 629.757 60.7057 668.248 108.187 668.248Z" fill="#E53950"/>
<path d="M118.918 496.994C130.559 509.161 138.37 524.48 141.38 541.048C144.39 557.616 142.466 574.703 135.849 590.187C129.231 605.671 118.21 618.87 104.156 628.145C90.101 637.42 73.6314 642.362 56.7923 642.357C53.2042 642.349 49.62 642.118 46.0605 641.666C55.5698 651.617 67.3295 659.138 80.3505 663.598C93.3716 668.057 107.273 669.325 120.886 667.294C134.499 665.263 147.425 659.993 158.577 651.926C169.729 643.86 178.782 633.234 184.972 620.941C191.163 608.648 194.311 595.049 194.152 581.286C193.993 567.523 190.531 554 184.058 541.854C177.585 529.707 168.29 519.293 156.954 511.487C145.619 503.68 132.574 498.71 118.918 496.994Z" fill="#CA2E43"/>
<path d="M400.417 1478.03C447.898 1478.03 486.389 1439.54 486.389 1392.06C486.389 1344.57 447.898 1306.08 400.417 1306.08C352.936 1306.08 314.445 1344.57 314.445 1392.06C314.445 1439.54 352.936 1478.03 400.417 1478.03Z" fill="#E53950"/>
<path d="M426.932 1310.27C437.248 1325.04 442.665 1342.67 442.418 1360.68C442.171 1378.69 436.273 1396.17 425.556 1410.65C414.839 1425.13 399.845 1435.88 382.692 1441.37C365.538 1446.87 347.091 1446.84 329.955 1441.29C337.765 1452.46 348.122 1461.62 360.171 1468.01C372.22 1474.39 385.614 1477.82 399.248 1478C412.883 1478.19 426.366 1475.13 438.584 1469.08C450.802 1463.02 461.405 1454.15 469.518 1443.19C477.63 1432.23 483.019 1419.5 485.24 1406.05C487.46 1392.59 486.448 1378.8 482.288 1365.82C478.128 1352.83 470.938 1341.02 461.313 1331.37C451.688 1321.71 439.903 1314.48 426.932 1310.27Z" fill="#CA2E43"/>
<path d="M1079.79 1478.03C1127.27 1478.03 1165.76 1439.54 1165.76 1392.06C1165.76 1344.57 1127.27 1306.08 1079.79 1306.08C1032.31 1306.08 993.818 1344.57 993.818 1392.06C993.818 1439.54 1032.31 1478.03 1079.79 1478.03Z" fill="#FED402"/>
<path d="M1131.07 1323.05C1136.35 1340.37 1136.02 1358.9 1130.14 1376.02C1124.26 1393.14 1113.13 1407.97 1098.34 1418.39C1083.54 1428.82 1065.83 1434.3 1047.73 1434.07C1029.63 1433.84 1012.07 1427.91 997.541 1417.11C1001.5 1430.12 1008.49 1442 1017.94 1451.78C1027.38 1461.56 1039.01 1468.96 1051.87 1473.38C1064.73 1477.79 1078.45 1479.09 1091.91 1477.17C1105.37 1475.26 1118.18 1470.17 1129.3 1462.35C1140.41 1454.52 1149.51 1444.16 1155.85 1432.13C1162.19 1420.1 1165.58 1406.75 1165.76 1393.15C1165.93 1379.56 1162.88 1366.11 1156.85 1353.93C1150.82 1341.74 1141.98 1331.16 1131.07 1323.05Z" fill="#FAC600"/>
<path d="M1392.3 690.064C1439.78 690.064 1478.27 651.574 1478.27 604.093C1478.27 556.612 1439.78 518.121 1392.3 518.121C1344.82 518.121 1306.33 556.612 1306.33 604.093C1306.33 651.574 1344.82 690.064 1392.3 690.064Z" fill="#FED402"/>
<path d="M1429.66 526.648C1440.5 542.249 1445.86 560.997 1444.91 579.966C1443.96 598.934 1436.76 617.056 1424.43 631.502C1412.11 645.947 1395.34 655.905 1376.76 659.819C1358.17 663.733 1338.81 661.385 1321.71 653.139C1329.21 663.939 1339.09 672.872 1350.59 679.252C1362.09 685.632 1374.9 689.288 1388.04 689.94C1401.17 690.591 1414.28 688.221 1426.36 683.011C1438.43 677.8 1449.15 669.889 1457.69 659.886C1466.23 649.883 1472.36 638.054 1475.61 625.31C1478.85 612.567 1479.14 599.248 1476.43 586.378C1473.72 573.508 1468.1 561.431 1459.99 551.076C1451.88 540.721 1441.51 532.364 1429.66 526.648Z" fill="#FAC600"/>
<path d="M1392.3 1089.26C1439.78 1089.26 1478.27 1050.77 1478.27 1003.28C1478.27 955.803 1439.78 917.312 1392.3 917.312C1344.82 917.312 1306.33 955.803 1306.33 1003.28C1306.33 1050.77 1344.82 1089.26 1392.3 1089.26Z" fill="#E53950"/>
<path d="M108.187 1107.86C155.667 1107.86 194.158 1069.37 194.158 1021.89C194.158 974.407 155.667 935.916 108.187 935.916C60.7057 935.916 22.2148 974.407 22.2148 1021.89C22.2148 1069.37 60.7057 1107.86 108.187 1107.86Z" fill="#FED402"/>
<path d="M142.471 943.043C149.678 958.865 151.919 976.5 148.897 993.621C145.876 1010.74 137.736 1026.55 125.549 1038.95C113.363 1051.34 97.7032 1059.76 80.637 1063.08C63.5707 1066.39 45.8996 1064.46 29.9551 1057.53C35.7384 1070.22 44.5229 1081.32 55.5508 1089.86C66.5786 1098.39 79.5185 1104.12 93.2541 1106.55C106.99 1108.97 121.109 1108.01 134.392 1103.76C147.676 1099.51 159.726 1092.09 169.503 1082.14C179.279 1072.19 186.489 1060.02 190.509 1046.66C194.529 1033.31 195.24 1019.17 192.579 1005.48C189.918 991.79 183.966 978.952 175.237 968.074C166.507 957.196 155.262 948.605 142.471 943.043Z" fill="#FAC600"/>
<path d="M796.561 243.457L794.187 250.752L785.193 278.32L785.018 278.906L771.776 319.6L715.027 493.975C707.235 489.258 699.559 485.684 692.381 486.943C677.967 489.492 668.416 509.883 656.697 521.719L643.103 504.492C642.032 503.13 640.58 502.117 638.932 501.58C637.284 501.042 635.514 501.006 633.846 501.475L574.285 518.174C572.753 518.604 571.132 518.609 569.597 518.19C568.062 517.77 566.67 516.942 565.569 515.793C564.468 514.643 563.7 513.217 563.346 511.665C562.993 510.113 563.068 508.495 563.563 506.982L621.629 328.594L663.436 200.127L713.885 216.533L716.112 217.266L794.187 242.695L796.561 243.457Z" fill="#00C27A"/>
<path d="M752.615 243.457L750.242 250.752L741.248 278.32L741.073 278.906L727.83 319.6L652.742 550.313C652.25 551.826 651.355 553.177 650.155 554.222C648.955 555.267 647.493 555.967 645.926 556.247C644.36 556.526 642.746 556.376 641.259 555.81C639.771 555.245 638.464 554.287 637.478 553.037L599.158 504.492C598.086 503.13 596.635 502.117 594.987 501.58C593.339 501.042 591.569 501.006 589.9 501.475L530.34 518.174C528.807 518.604 527.187 518.609 525.652 518.19C524.117 517.77 522.724 516.942 521.623 515.793C520.522 514.643 519.754 513.217 519.401 511.665C519.048 510.113 519.122 508.495 519.617 506.982L577.684 328.594L619.491 200.127L669.94 216.533L672.166 217.266L750.242 242.695L752.615 243.457Z" fill="#E53950"/>
<path d="M1124.69 299.766C1106.32 286.377 1103.21 249.434 1083.46 238.008C1063.84 226.67 1030.26 242.373 1009.4 233.057C988.719 223.828 977.967 188.35 956.199 181.289C934.695 174.316 905.164 196.67 882.752 191.924C870.77 189.404 860.047 178.711 849.061 169.072L757.537 196.904V291.24L796.971 303.229L803.182 322.266L803.357 322.852L816.599 363.545L870.74 529.951C886.737 527.637 905.252 519.844 916.882 526.553C926.961 532.383 930.242 548.027 934.725 561.797L945.272 548.438C946.344 547.076 947.795 546.062 949.443 545.525C951.091 544.988 952.861 544.951 954.529 545.42L1014.09 562.119C1015.62 562.549 1017.24 562.554 1018.78 562.135C1020.31 561.716 1021.71 560.887 1022.81 559.738C1023.91 558.589 1024.68 557.162 1025.03 555.611C1025.38 554.059 1025.31 552.44 1024.81 550.928L988.818 440.347C986.105 432.013 985.73 423.094 987.732 414.562C989.734 406.029 994.037 398.209 1000.17 391.951C1006.31 385.693 1014.05 381.238 1022.54 379.07C1031.03 376.901 1039.95 377.103 1048.34 379.652L1085.46 390.938C1091.17 392.672 1097.21 393.045 1103.09 392.024C1108.98 391.004 1114.54 388.62 1119.34 385.063C1124.13 381.505 1128.03 376.874 1130.71 371.54C1133.4 366.206 1134.79 360.317 1134.79 354.346V304.717C1131.19 303.605 1127.78 301.934 1124.69 299.766Z" fill="#00C27A"/>
<path d="M970.145 518.174L910.584 501.475C908.916 501.006 907.146 501.042 905.498 501.58C903.85 502.117 902.398 503.13 901.327 504.492L863.006 553.037C862.02 554.287 860.714 555.245 859.226 555.81C857.738 556.376 856.125 556.526 854.558 556.247C852.991 555.967 851.53 555.267 850.33 554.222C849.129 553.177 848.235 551.826 847.742 550.313L772.654 319.6L759.412 278.906L759.237 278.32L750.242 250.752L747.869 243.457L750.242 242.695L828.318 217.266L830.545 216.533L880.994 200.127L922.801 328.594L980.867 506.982C981.362 508.495 981.437 510.114 981.084 511.665C980.73 513.217 979.962 514.644 978.861 515.793C977.76 516.942 976.368 517.77 974.833 518.19C973.298 518.609 971.677 518.604 970.145 518.174Z" fill="#E53950"/>
<path d="M752.615 243.457L741.072 278.906L577.684 328.594L619.49 200.127L752.615 243.457Z" fill="#CA2E43"/>
<path d="M922.801 328.594L759.412 278.906L747.869 243.457L880.994 200.127L922.801 328.594Z" fill="#CA2E43"/>
<path d="M830.544 186.416V242.49C830.549 259.879 824.907 276.799 814.467 290.705C804.027 304.611 789.353 314.751 772.654 319.599L759.411 278.906L759.236 278.32C753.261 279.023 747.223 279.023 741.248 278.32L741.072 278.906L727.83 319.599C711.131 314.751 696.457 304.611 686.017 290.705C675.577 276.799 669.935 259.879 669.939 242.49V186.416C669.939 165.118 678.4 144.693 693.46 129.633C708.519 114.574 728.944 106.113 750.242 106.113C771.539 106.113 791.965 114.574 807.024 129.633C822.084 144.693 830.544 165.118 830.544 186.416H830.544Z" fill="#CA2E43"/>
<path d="M797.955 217.667L470.052 317.368C464.338 319.105 458.296 319.48 452.411 318.461C446.526 317.443 440.961 315.06 436.162 311.504C431.364 307.948 427.465 303.317 424.779 297.982C422.093 292.647 420.693 286.758 420.693 280.785V60.2342C420.693 54.2615 422.093 48.3718 424.779 43.0373C427.465 37.7027 431.364 33.0717 436.162 29.5153C440.961 25.9589 446.525 23.5761 452.411 22.5578C458.296 21.5396 464.338 21.9142 470.052 23.6517L797.955 123.352V217.667Z" fill="#E53950"/>
<path d="M702.529 217.667L1030.43 317.368C1036.15 319.105 1042.19 319.48 1048.07 318.461C1053.96 317.443 1059.52 315.06 1064.32 311.504C1069.12 307.948 1073.02 303.317 1075.71 297.982C1078.39 292.647 1079.79 286.758 1079.79 280.785V60.2342C1079.79 54.2615 1078.39 48.3718 1075.71 43.0373C1073.02 37.7027 1069.12 33.0717 1064.32 29.5153C1059.52 25.9589 1053.96 23.5761 1048.07 22.5578C1042.19 21.5396 1036.15 21.9142 1030.43 23.6517L702.529 123.352V217.667Z" fill="#E53950"/>
<path d="M931.868 192.482H830.536C827.651 192.482 824.793 191.914 822.128 190.81C819.462 189.706 817.04 188.087 814.999 186.047C812.959 184.006 811.34 181.584 810.236 178.918C809.132 176.252 808.564 173.395 808.564 170.51C808.564 167.624 809.132 164.767 810.236 162.101C811.34 159.435 812.959 157.013 814.999 154.973C817.04 152.932 819.462 151.314 822.128 150.21C824.793 149.105 827.651 148.537 830.536 148.537H931.868C937.695 148.537 943.284 150.852 947.405 154.973C951.526 159.093 953.841 164.682 953.841 170.51C953.841 176.337 951.526 181.926 947.405 186.047C943.284 190.167 937.695 192.482 931.868 192.482ZM669.947 192.482H568.615C565.73 192.482 562.872 191.914 560.207 190.81C557.541 189.706 555.119 188.087 553.078 186.047C551.038 184.006 549.419 181.584 548.315 178.918C547.211 176.252 546.643 173.395 546.643 170.51C546.643 167.624 547.211 164.767 548.315 162.101C549.419 159.435 551.038 157.013 553.078 154.973C555.119 152.932 557.541 151.314 560.207 150.21C562.872 149.105 565.73 148.537 568.615 148.537H669.947C675.774 148.537 681.363 150.852 685.484 154.973C689.605 159.093 691.92 164.682 691.92 170.51C691.92 176.337 689.605 181.926 685.484 186.047C681.363 190.167 675.774 192.482 669.947 192.482Z" fill="#CA2E43"/>
<path d="M830.544 142.47V198.545C830.553 204.851 829.805 211.137 828.318 217.265C824.478 233.31 815.785 247.781 803.423 258.707C791.061 269.632 775.631 276.481 759.236 278.32C753.261 279.023 747.223 279.023 741.248 278.32C724.852 276.481 709.423 269.632 697.061 258.707C684.699 247.781 676.006 233.31 672.166 217.265C670.678 211.137 669.931 204.851 669.94 198.545V142.47C669.94 121.173 678.4 100.748 693.46 85.688C708.519 70.6284 728.944 62.168 750.242 62.168C771.539 62.168 791.965 70.6284 807.024 85.688C822.084 100.748 830.544 121.173 830.544 142.47Z" fill="#EB5569"/>
<path d="M387.062 486.699C399.198 486.699 409.035 476.93 409.035 464.879C409.035 452.828 399.198 443.059 387.062 443.059C374.927 443.059 365.09 452.828 365.09 464.879C365.09 476.93 374.927 486.699 387.062 486.699Z" fill="#E53950"/>
<path d="M290.715 744.945C302.85 744.945 312.688 735.176 312.688 723.125C312.688 711.074 302.85 701.305 290.715 701.305C278.58 701.305 268.742 711.074 268.742 723.125C268.742 735.176 278.58 744.945 290.715 744.945Z" fill="#FEE903"/>
<path d="M343.117 1053.8C355.252 1053.8 365.09 1044.04 365.09 1031.98C365.09 1019.93 355.252 1010.16 343.117 1010.16C330.982 1010.16 321.145 1019.93 321.145 1031.98C321.145 1044.04 330.982 1053.8 343.117 1053.8Z" fill="#E53950"/>
<path d="M575.475 1283.96C587.61 1283.96 597.447 1274.19 597.447 1262.14C597.447 1250.09 587.61 1240.32 575.475 1240.32C563.339 1240.32 553.502 1250.09 553.502 1262.14C553.502 1274.19 563.339 1283.96 575.475 1283.96Z" fill="#FEE903"/>
<path d="M904.912 1283.96C917.047 1283.96 926.885 1274.19 926.885 1262.14C926.885 1250.09 917.047 1240.32 904.912 1240.32C892.777 1240.32 882.939 1250.09 882.939 1262.14C882.939 1274.19 892.777 1283.96 904.912 1283.96Z" fill="#FEE903"/>
<path d="M1126.95 1140.83C1139.08 1140.83 1148.92 1131.06 1148.92 1119.01C1148.92 1106.96 1139.08 1097.19 1126.95 1097.19C1114.81 1097.19 1104.97 1106.96 1104.97 1119.01C1104.97 1131.06 1114.81 1140.83 1126.95 1140.83Z" fill="#E53950"/>
<path d="M1221.55 821.18C1233.68 821.18 1243.52 811.41 1243.52 799.359C1243.52 787.308 1233.68 777.539 1221.55 777.539C1209.41 777.539 1199.57 787.308 1199.57 799.359C1199.57 811.41 1209.41 821.18 1221.55 821.18Z" fill="#FEE903"/>
<path d="M1119.49 539.941C1131.63 539.941 1141.46 530.172 1141.46 518.121C1141.46 506.07 1131.63 496.301 1119.49 496.301C1107.36 496.301 1097.52 506.07 1097.52 518.121C1097.52 530.172 1107.36 539.941 1119.49 539.941Z" fill="#E53950"/>
<path d="M1429.66 925.836C1440.5 941.437 1445.86 960.185 1444.91 979.153C1443.96 998.122 1436.76 1016.24 1424.43 1030.69C1412.11 1045.13 1395.34 1055.09 1376.76 1059.01C1358.17 1062.92 1338.81 1060.57 1321.71 1052.33C1329.21 1063.13 1339.09 1072.06 1350.59 1078.44C1362.09 1084.82 1374.9 1088.48 1388.04 1089.13C1401.17 1089.78 1414.28 1087.41 1426.36 1082.2C1438.43 1076.99 1449.15 1069.08 1457.69 1059.07C1466.23 1049.07 1472.36 1037.24 1475.61 1024.5C1478.85 1011.75 1479.14 998.435 1476.43 985.565C1473.72 972.696 1468.1 960.619 1459.99 950.264C1451.88 939.909 1441.51 931.552 1429.66 925.836Z" fill="#CA2E43"/>
</svg>
