<svg width="59" height="159" viewBox="0 0 59 159" fill="none" xmlns="http://www.w3.org/2000/svg">
  <rect x="3" y="3" width="52.5062" height="88" rx="26.2531" stroke="#FDFDFD" stroke-width="6"/>
  <rect x="23.0125" y="51.0954" width="12.0913" height="21.8423" rx="6.04564" fill="#FDFDFD"/>
  <path d="M10.8784 109.378C11.4409 108.816 12.2039 108.5 12.9994 108.5C13.7949 108.5 14.5578 108.816 15.1204 109.378L29.9704 124.228L44.8204 109.378C45.3862 108.832 46.144 108.53 46.9306 108.536C47.7172 108.543 48.4696 108.859 49.0258 109.415C49.582 109.971 49.8975 110.724 49.9044 111.51C49.9112 112.297 49.6088 113.055 49.0624 113.62L32.0914 130.591C31.5288 131.154 30.7659 131.47 29.9704 131.47C29.1749 131.47 28.4119 131.154 27.8494 130.591L10.8784 113.62C10.3159 113.058 10 112.295 10 111.499C10 110.704 10.3159 109.941 10.8784 109.378Z" fill="#FDFDFD"/>
  <path d="M10.8784 136.378C11.4409 135.816 12.2039 135.5 12.9994 135.5C13.7949 135.5 14.5578 135.816 15.1204 136.378L29.9704 151.228L44.8204 136.378C45.3862 135.832 46.144 135.53 46.9306 135.536C47.7172 135.543 48.4696 135.859 49.0258 136.415C49.582 136.971 49.8975 137.724 49.9044 138.51C49.9112 139.297 49.6088 140.055 49.0624 140.62L32.0914 157.591C31.5288 158.154 30.7659 158.47 29.9704 158.47C29.1749 158.47 28.4119 158.154 27.8494 157.591L10.8784 140.62C10.3159 140.058 10 139.295 10 138.499C10 137.704 10.3159 136.941 10.8784 136.378Z" fill="#FDFDFD"/>
</svg>