<?xml version="1.0" standalone="no"?>
<!DOCTYPE svg PUBLIC "-//W3C//DTD SVG 20010904//EN"
 "http://www.w3.org/TR/2001/REC-SVG-20010904/DTD/svg10.dtd">
<svg version="1.0" xmlns="http://www.w3.org/2000/svg"
 width="512.000000pt" height="512.000000pt" viewBox="0 0 512.000000 512.000000"
 preserveAspectRatio="xMidYMid meet">

<g transform="translate(0.000000,512.000000) scale(0.100000,-0.100000)"
fill="#000000" stroke="none">
<path d="M1440 4067 c-19 -6 -58 -34 -85 -62 -53 -53 -75 -102 -75 -171 -1
-72 -58 -166 -122 -200 -15 -8 -29 -14 -33 -14 -3 0 -5 21 -5 46 0 77 -20 124
-75 179 -75 76 -173 98 -220 50 -50 -49 -15 -135 55 -135 51 0 80 -38 80 -103
l0 -54 -83 -5 c-135 -9 -233 -72 -284 -185 l-24 -53 -101 0 c-132 0 -171 -12
-233 -75 -71 -70 -91 -145 -63 -239 23 -77 135 -166 211 -166 13 0 16 -34 19
-262 5 -309 10 -333 103 -436 l55 -60 0 -437 c0 -314 3 -449 12 -479 26 -86
136 -166 228 -166 92 0 202 80 228 166 8 29 12 154 12 429 0 365 1 387 18 380
165 -69 343 -70 511 -3 45 18 55 19 61 7 31 -54 77 -103 122 -128 29 -17 59
-34 66 -38 9 -6 4 -69 -24 -292 -23 -180 -33 -300 -29 -327 10 -66 60 -133
125 -167 48 -25 64 -28 121 -25 83 4 151 43 191 108 24 39 31 73 58 265 40
294 33 269 82 262 83 -11 126 -64 139 -171 17 -133 66 -210 171 -267 l63 -34
1123 -3 1122 -2 0 80 0 80 -83 0 -83 0 0 73 c1 51 -4 82 -17 107 -18 35 -18
35 5 50 49 30 112 106 142 169 l31 66 3 380 c2 282 0 392 -9 425 -17 59 -97
141 -155 158 -149 44 -293 -53 -311 -211 -4 -34 -14 -59 -29 -74 l-23 -23
-349 0 c-383 0 -404 -3 -474 -60 -45 -37 -76 -100 -89 -181 -13 -82 -45 -153
-81 -184 -34 -29 -80 -43 -169 -51 l-67 -7 -3 170 -4 169 -37 76 c-45 91 -103
147 -196 191 -67 32 -68 32 -227 32 -145 0 -164 -2 -200 -22 -47 -25 -86 -65
-109 -110 -14 -28 -22 -33 -54 -34 -20 -1 -84 -4 -141 -8 l-103 -6 -39 77
c-76 151 -197 260 -349 316 l-75 27 -335 3 -335 3 -63 62 c-54 53 -75 85 -138
210 l-75 148 19 43 c11 23 35 54 53 67 31 22 46 24 189 29 147 6 159 8 222 37
134 63 222 185 235 328 7 81 32 115 83 115 41 0 80 39 80 80 0 67 -68 96 -160
67z m-810 -947 l40 -80 -150 0 c-147 0 -152 1 -175 25 -16 15 -25 36 -25 55 0
19 9 40 25 55 23 24 31 25 134 25 l111 0 40 -80z m155 -260 c17 -19 18 -27 7
-92 -17 -96 -70 -195 -139 -258 -100 -92 -93 -103 -93 150 l0 220 103 0 c92 0
106 -2 122 -20z m868 -155 c78 -20 124 -45 184 -99 46 -41 113 -131 113 -150
0 -19 -420 19 -624 55 -132 24 -387 87 -400 99 -7 7 -4 24 19 98 7 19 631 17
708 -3z m3122 -90 l25 -24 0 -352 c0 -247 -4 -364 -12 -393 -16 -55 -99 -138
-154 -154 -59 -17 -1529 -17 -1588 0 -55 16 -138 99 -154 154 -8 26 -12 112
-12 233 0 190 0 192 -25 216 -23 24 -31 25 -135 25 -104 0 -112 1 -135 25 -40
40 -30 96 22 123 29 16 214 15 267 0 55 -16 138 -99 154 -154 8 -26 12 -112
12 -233 0 -190 0 -192 25 -216 22 -23 32 -25 117 -25 306 0 438 97 494 364 25
118 -6 110 428 116 l373 5 49 30 c56 35 102 102 110 161 10 70 14 83 36 104
30 27 73 26 103 -5z m-3555 -245 c199 -40 340 -58 578 -72 l202 -12 0 -78 0
-79 59 -63 c110 -118 114 -140 78 -391 l-22 -150 -83 -3 -82 -3 5 38 c13 93
45 360 45 376 0 29 -45 67 -81 67 -77 0 -144 63 -158 149 -16 99 -71 118 -164
56 -86 -57 -157 -78 -272 -79 -119 -1 -181 16 -277 74 -77 46 -109 50 -143 15
l-25 -24 0 -336 0 -335 -80 0 -80 0 0 335 0 336 -47 50 c-40 43 -45 52 -31 60
42 23 138 103 161 132 l26 34 123 -34 c68 -19 188 -47 268 -63z m1214 -89 c22
-41 89 -96 135 -109 21 -7 64 -12 95 -12 l56 0 0 -142 c0 -196 23 -272 108
-368 l39 -45 -22 -30 c-34 -45 -48 -101 -42 -163 l6 -54 -37 6 c-79 12 -120
65 -133 172 -21 165 -122 277 -271 299 l-46 7 -4 61 c-5 79 -39 153 -106 234
-47 57 -52 67 -52 112 l0 50 83 4 c45 1 103 4 129 5 43 2 49 -1 62 -27z m661
-786 c50 -49 15 -135 -55 -135 -41 0 -80 39 -80 80 0 41 39 80 80 80 19 0 40
-9 55 -25z m1230 -55 l0 -80 -525 0 -525 0 0 80 0 80 525 0 525 0 0 -80z m290
55 c50 -49 15 -135 -55 -135 -41 0 -80 39 -80 80 0 41 39 80 80 80 19 0 40 -9
55 -25z m-3735 -190 c0 -67 -29 -105 -80 -105 -51 0 -80 38 -80 105 l0 55 80
0 80 0 0 -55z m1204 3 c-8 -65 -26 -96 -61 -104 -66 -17 -110 32 -99 109 l7
47 80 0 80 0 -7 -52z"/>
<path d="M3840 2080 l0 -80 80 0 80 0 0 80 0 80 -80 0 -80 0 0 -80z"/>
<path d="M4480 2080 l0 -80 80 0 80 0 0 80 0 80 -80 0 -80 0 0 -80z"/>
</g>
</svg>
