<svg width="26" height="30" viewBox="0 0 26 30" fill="none" xmlns="http://www.w3.org/2000/svg">
<path d="M22.8645 6.51289C22.6682 6.41143 22.4771 6.30021 22.292 6.17964C21.7534 5.82363 21.2597 5.40414 20.8214 4.93022C19.7247 3.67535 19.315 2.40231 19.1642 1.51099H19.1702C19.0442 0.77116 19.0963 0.29248 19.1042 0.29248H14.109V19.6081C14.109 19.8675 14.109 20.1238 14.098 20.377C14.098 20.4085 14.095 20.4376 14.0932 20.4716C14.0932 20.4855 14.0932 20.5 14.0902 20.5146V20.5255C14.0375 21.2185 13.8154 21.888 13.4432 22.475C13.0711 23.0621 12.5604 23.5487 11.9561 23.892C11.3263 24.2503 10.6139 24.4383 9.8893 24.4373C7.56195 24.4373 5.6757 22.5396 5.6757 20.1959C5.6757 17.8521 7.56195 15.9544 9.8893 15.9544C10.3299 15.954 10.7677 16.0233 11.1866 16.1598L11.1926 11.0737C9.92103 10.9094 8.62917 11.0105 7.39857 11.3705C6.16797 11.7305 5.02533 12.3416 4.04274 13.1653C3.18176 13.9134 2.45794 14.806 1.90383 15.8029C1.69297 16.1665 0.897391 17.6274 0.801049 19.9983C0.740457 21.3441 1.14461 22.7383 1.33729 23.3146V23.3267C1.45848 23.666 1.92807 24.8239 2.69335 25.8001C3.31044 26.5831 4.03952 27.2709 4.8571 27.8414V27.8293L4.86922 27.8414C7.28746 29.4847 9.96867 29.3768 9.96867 29.3768C10.4328 29.358 11.9876 29.3768 13.7533 28.54C15.7116 27.6124 16.8265 26.2303 16.8265 26.2303C17.5388 25.4044 18.1051 24.4633 18.5013 23.4473C18.9533 22.259 19.1042 20.8339 19.1042 20.2643V10.017C19.1648 10.0533 19.9719 10.5871 19.9719 10.5871C19.9719 10.5871 21.1346 11.3324 22.9488 11.8178C24.2503 12.1631 26.0038 12.2358 26.0038 12.2358V7.27696C25.3894 7.34362 24.1418 7.14972 22.8645 6.51289Z" fill="#FDFDFD"/>
</svg> 