<svg width="32" height="26" viewBox="0 0 32 26" fill="none" xmlns="http://www.w3.org/2000/svg">
<path d="M10.2279 25.4392C21.9353 25.4392 28.3397 15.7386 28.3397 7.341C28.3397 7.06955 28.3397 6.79422 28.3281 6.52276C29.5749 5.62015 30.6511 4.50266 31.506 3.22266C30.3413 3.73619 29.1071 4.07465 27.8433 4.22704C29.1745 3.43136 30.1715 2.17944 30.649 0.703956C29.3984 1.44488 28.0295 1.965 26.6024 2.24155C25.643 1.21976 24.3734 0.542863 22.9903 0.315694C21.6072 0.0885256 20.1878 0.323768 18.9519 0.984983C17.7161 1.6462 16.7327 2.69648 16.1542 3.97315C15.5757 5.24982 15.4344 6.68163 15.752 8.04678C13.2212 7.91988 10.7453 7.26241 8.48488 6.11702C6.2245 4.97163 4.23012 3.3639 2.63109 1.3981C1.81933 2.80013 1.57159 4.45855 1.9382 6.0366C2.3048 7.61465 3.25825 8.99402 4.60495 9.89461C3.5958 9.86032 2.60883 9.58934 1.72366 9.10351V9.19077C1.7254 10.6595 2.2342 12.0826 3.16406 13.2194C4.09392 14.3563 5.3878 15.1373 6.82699 15.4303C6.28071 15.5808 5.71641 15.6558 5.14979 15.6533C4.75034 15.6545 4.35168 15.6175 3.95928 15.5428C4.36604 16.8071 5.15808 17.9125 6.22445 18.7042C7.29083 19.4959 8.57813 19.9342 9.90605 19.9578C7.65018 21.7296 4.86361 22.6906 1.99511 22.6859C1.48967 22.688 0.984574 22.6589 0.482727 22.5986C3.3941 24.4547 6.77522 25.4403 10.2279 25.4392Z" fill="#FDFDFD"/>
</svg> 