<svg width="32" height="23" viewBox="0 0 32 23" fill="none" xmlns="http://www.w3.org/2000/svg">
<path d="M15.6105 0.524414H15.7831C17.3769 0.530231 25.4527 0.5884 27.6301 1.17396C28.2884 1.35268 28.8882 1.70102 29.3697 2.18418C29.8511 2.66734 30.1974 3.26839 30.3737 3.92728C30.5696 4.66409 30.7072 5.63938 30.8003 6.6457L30.8197 6.84735L30.8624 7.35148L30.8779 7.55313C31.0039 9.32534 31.0194 10.9851 31.0214 11.3477V11.4931C31.0194 11.8692 31.002 13.6415 30.8624 15.4873L30.8468 15.6909L30.8294 15.8926C30.7325 17.0017 30.589 18.103 30.3737 18.9135C30.1979 19.5726 29.8519 20.174 29.3703 20.6572C28.8888 21.1405 28.2887 21.4886 27.6301 21.6668C25.3809 22.2717 16.8321 22.3144 15.6474 22.3163H15.372C14.7729 22.3163 12.2949 22.3047 9.69672 22.2155L9.3671 22.2039L9.19841 22.1961L8.86685 22.1826L8.53528 22.169C6.38304 22.074 4.33357 21.9208 3.38929 21.6649C2.731 21.4868 2.13104 21.139 1.64952 20.6561C1.168 20.1732 0.82182 19.5723 0.645672 18.9135C0.430448 18.1049 0.286965 17.0017 0.190018 15.8926L0.174506 15.689L0.158994 15.4873C0.0633023 14.1735 0.0102762 12.8569 0 11.5396L0 11.3011C0.00387791 10.8843 0.0193896 9.44361 0.124093 7.85367L0.137666 7.65396L0.143483 7.55313L0.158994 7.35148L0.201651 6.84735L0.221041 6.6457C0.314111 5.63938 0.451777 4.66215 0.647611 3.92728C0.823462 3.26813 1.16951 2.66679 1.65105 2.18354C2.13259 1.7003 2.73271 1.35214 3.39123 1.17396C4.33551 0.9219 6.38498 0.766783 8.53722 0.669836L8.86685 0.656263L9.20035 0.64463L9.3671 0.638813L9.69866 0.62524C11.544 0.565859 13.3901 0.532893 15.2363 0.526353H15.6105V0.524414ZM12.4093 6.74846V16.0904L20.4696 11.4213L12.4093 6.74846Z" fill="#FDFDFD"/>
</svg> 